<?xml version="1.0" encoding="iso-8859-1"?>
<!-- Uploaded to: SVG Repo, www.svgrepo.com, Generator: SVG Repo Mixer Tools -->
<svg fill="#ff0000" version="1.1" id="Layer_1" xmlns="http://www.w3.org/2000/svg" xmlns:xlink="http://www.w3.org/1999/xlink" 
	 viewBox="0 0 512 512" xml:space="preserve">
<g>
	<g>
		<g>
			<path d="M503.467,494.933H460.8V51.2h17.067c4.71,0,8.533-3.823,8.533-8.533V8.533c0-4.71-3.823-8.533-8.533-8.533H34.133
				C29.423,0,25.6,3.823,25.6,8.533v34.133c0,4.71,3.823,8.533,8.533,8.533H51.2v443.733H8.533c-4.71,0-8.533,3.823-8.533,8.533
				S3.823,512,8.533,512h51.2h238.933h102.4h51.2h51.2c4.71,0,8.533-3.823,8.533-8.533S508.177,494.933,503.467,494.933z
				 M238.933,418.133c0,4.71-3.823,8.533-8.533,8.533h-68.267H93.867c-4.71,0-8.533-3.823-8.533-8.533v-68.267
				c0-4.71,3.823-8.533,8.533-8.533h68.267H230.4c4.71,0,8.533,3.823,8.533,8.533V418.133z M238.933,281.6
				c0,4.71-3.823,8.533-8.533,8.533h-68.267H93.867c-4.71,0-8.533-3.823-8.533-8.533v-68.267c0-4.71,3.823-8.533,8.533-8.533h68.267
				H230.4c4.71,0,8.533,3.823,8.533,8.533V281.6z M238.933,162.133c0,4.71-3.823,8.533-8.533,8.533h-68.267H93.867
				c-4.71,0-8.533-3.823-8.533-8.533V93.867c0-4.71,3.823-8.533,8.533-8.533h68.267H230.4c4.71,0,8.533,3.823,8.533,8.533V162.133z
				 M409.6,494.933h-17.067V358.4H358.4v136.533h-17.067V358.4H307.2v136.533h-17.067V349.867c0-4.71,3.823-8.533,8.533-8.533h102.4
				c4.71,0,8.533,3.823,8.533,8.533V494.933z M426.667,281.6c0,4.71-3.823,8.533-8.533,8.533h-68.267H281.6
				c-4.71,0-8.533-3.823-8.533-8.533v-68.267c0-4.71,3.823-8.533,8.533-8.533h68.267h68.267c4.71,0,8.533,3.823,8.533,8.533V281.6z
				 M426.667,162.133c0,4.71-3.823,8.533-8.533,8.533h-68.267H281.6c-4.71,0-8.533-3.823-8.533-8.533V93.867
				c0-4.71,3.823-8.533,8.533-8.533h68.267h68.267c4.71,0,8.533,3.823,8.533,8.533V162.133z"/>
			<rect x="170.667" y="102.4" width="51.2" height="51.2"/>
			<rect x="170.667" y="358.4" width="51.2" height="51.2"/>
			<rect x="102.4" y="358.4" width="51.2" height="51.2"/>
			<rect x="358.4" y="102.4" width="51.2" height="51.2"/>
			<rect x="290.133" y="102.4" width="51.2" height="51.2"/>
			<rect x="102.4" y="102.4" width="51.2" height="51.2"/>
			<rect x="170.667" y="221.867" width="51.2" height="51.2"/>
			<rect x="358.4" y="221.867" width="51.2" height="51.2"/>
			<rect x="290.133" y="221.867" width="51.2" height="51.2"/>
			<rect x="102.4" y="221.867" width="51.2" height="51.2"/>
		</g>
	</g>
</g>
</svg>